<svg xmlns="http://www.w3.org/2000/svg" width="26" height="26" viewBox="0 0 26 26"><path d="M987.573,960.788c-1.287-1.226-.99-2.288-.722-2.787.017-.027.033-.055.051-.081.03-.043.06-.086.094-.125s.062-.068.1-.119l.235-.274c.163-.181.3-.377.445-.567s.273-.4.4-.6a9.82,9.82,0,0,0,1.145-2.677,10.388,10.388,0,0,0,.323-2.935,13.076,13.076,0,0,0-1.582-5.707,17.1,17.1,0,0,0-3.358-4.354l1.414-1.414,1.13,1.13,1.51-4.241-4.241,1.51,1.13,1.13-1.414,1.414a17.094,17.094,0,0,0-4.354-3.358,13.073,13.073,0,0,0-5.707-1.582,10.377,10.377,0,0,0-2.935.323,9.814,9.814,0,0,0-2.677,1.145q-.306.193-.6.4c-.19.149-.386.282-.567.445l-.274.235c-.051.042-.076.071-.119.1s-.082.063-.125.094-.062.04-.093.059a2.171,2.171,0,0,1-2.692-.644l-.083-.086a.2.2,0,0,0-.293-.007.207.207,0,0,0-.007.293l.091.094a3.978,3.978,0,0,0,.74.591l10.793,10.793-3.047,3.047-1.976.1-2.827,2.689,2.233.253.253,2.232,2.689-2.827.1-1.976,3.047-3.047L986.6,960.258a3.985,3.985,0,0,0,.591.74l.094.091a.207.207,0,0,0,.286-.3ZM965.1,938.465a2.362,2.362,0,0,0,1.928-.171c.022-.011.045-.02.067-.032.056-.03.113-.061.167-.1s.115-.082.158-.108l.281-.187c.182-.129.387-.234.579-.351s.4-.21.6-.307a8.965,8.965,0,0,1,2.554-.746,9.191,9.191,0,0,1,2.621.028,11.4,11.4,0,0,1,4.776,1.969,14.776,14.776,0,0,1,3.385,3.337,1.326,1.326,0,0,0,.111.2l-6.851,6.851Zm10.853,10.853,6.851-6.851a1.346,1.346,0,0,0,.2.114,14.769,14.769,0,0,1,3.333,3.383,11.4,11.4,0,0,1,1.969,4.776,9.2,9.2,0,0,1,.028,2.621,8.968,8.968,0,0,1-.746,2.554c-.1.2-.2.4-.306.6s-.222.4-.351.579l-.187.281c-.027.043-.076.1-.108.158s-.066.111-.1.168c-.013.025-.024.052-.037.077a2.36,2.36,0,0,0-.166,1.917Z" transform="translate(-963.657 -935.146)"/></svg>