<svg xmlns="http://www.w3.org/2000/svg" width="21.853" height="36" viewBox="0 0 21.853 36"><path d="M261.343,127.182l-.323-.534c-.143-.237-.281-.477-.432-.708-.141-.216-.3-.424-.446-.634s-.326-.447-.491-.668c-.065-.087-.137-.169-.208-.252-.159-.186-.317-.373-.48-.556a9.748,9.748,0,0,0-.738-.781c-.259-.233-.494-.493-.752-.754.378-.07.744-.139,1.112-.206s.726-.127,1.1-.2c0-.174,0-.332,0-.49a2.365,2.365,0,0,0-.045-.417c-.011-.071-.028-.142-.032-.214a2.925,2.925,0,0,0-.143-.633,5.629,5.629,0,0,0-.426-1.055,8.247,8.247,0,0,0-.542-.846c-.033-.048-.075-.091-.113-.136a5.8,5.8,0,0,0-.741-.739.351.351,0,0,1-.078-.088,13.594,13.594,0,0,1,5.762,2.629.408.408,0,0,0,.009-.081c-.023-.188-.048-.376-.072-.564a2.489,2.489,0,0,1-.03-.269,3.5,3.5,0,0,0-.089-.533c-.036-.209-.074-.418-.125-.623-.071-.289-.156-.575-.233-.864a10.687,10.687,0,0,0-.443-1.238,11.061,11.061,0,0,0-.732-1.5c-.1-.164-.184-.334-.287-.495-.181-.282-.37-.559-.557-.838-.226-.336-.5-.636-.752-.947-.045-.055-.088-.112-.141-.181a9.772,9.772,0,0,1,5.44,1.783c.015-.082.031-.145.038-.21.012-.1.02-.207.028-.311.011-.149.017-.3.03-.447s.031-.278.046-.418c0-.018,0-.036.006-.054.019-.257.035-.514.057-.771s.052-.486.075-.729c.014-.153.019-.307.033-.461s.034-.314.05-.472q.015-.142.025-.284c.011-.149.02-.3.033-.447s.031-.306.046-.459c0-.027.005-.054.008-.081.017-.189.035-.378.051-.567.012-.144.019-.289.031-.433s.032-.315.048-.472c.011-.113.023-.225.031-.338.011-.149.017-.3.031-.447s.035-.305.049-.458c.012-.121.018-.243.04-.366.1.256.168.519.246.78s.152.53.229.795.153.53.23.795.155.529.232.794.156.538.234.808.154.529.23.794.152.53.228.8.154.529.231.794.151.53.228.8.156.526.236.793a.221.221,0,0,0,.048-.022c.11-.1.218-.205.328-.307a8.823,8.823,0,0,1,.907-.738,9.445,9.445,0,0,1,.92-.581,9.32,9.32,0,0,1,1.007-.476,11.53,11.53,0,0,1,1.584-.479.823.823,0,0,1,.12-.009c-.072.138-.132.263-.2.384a12.932,12.932,0,0,0-.948,2.148c-.176.5-.3,1.023-.425,1.539-.044.174-.063.355-.093.533-.033.2-.065.392-.1.587,0,.018-.01.035-.011.053-.01.154-.017.307-.029.461s-.03.324-.045.486c0,.05-.008.1-.009.149,0,.35-.007.7,0,1.05,0,.176.031.351.047.526,0,.027,0,.054.006.081l.035.478a1.006,1.006,0,0,0,.084-.071c.2-.216.393-.441.6-.647.256-.25.523-.491.794-.724.247-.213.5-.42.764-.612s.569-.39.862-.571a10.853,10.853,0,0,1,1.1-.6c.251-.117.5-.226.757-.339.007,0,.017,0,.041,0a7.947,7.947,0,0,0-.574.843,5.8,5.8,0,0,0-.42.941,5.73,5.73,0,0,0-.235.987,6.365,6.365,0,0,0-.052,1.027,5.9,5.9,0,0,0,.132,1.017c.72.006,1.431,0,2.162,0-.37.587-.773,1.127-1.1,1.719s-.626,1.185-.906,1.8-.479,1.26-.719,1.894a2.083,2.083,0,0,0,.379.162,8.247,8.247,0,0,0,1.09.326,7.2,7.2,0,0,0,.745.136l.656.1c.018,0,.036.005.054.006.172.01.344.017.515.031s.342.033.513.048c.05,0,.1,0,.15.005a.227.227,0,0,1,.112.032l-.133.075c-.043.025-.086.05-.13.074-.452.241-.9.484-1.356.723-.369.2-.735.4-1.11.578-.538.262-1.085.5-1.623.766-.763.372-1.558.665-2.339.995-.668.282-1.348.532-2.036.761-.443.148-.88.312-1.321.463-.154.053-.313.089-.469.134-.03.009-.06.02-.1.035l-.028.279c-.016.162-.034.324-.049.486-.012.122-.028.243-.031.365a4.394,4.394,0,0,1-.075.578c-.041.263-.076.528-.12.791-.031.187-.071.372-.112.557-.061.274-.121.548-.193.818-.064.241-.143.477-.216.715s-.138.46-.217.686c-.058.167-.132.328-.2.492-.18.461-.387.909-.6,1.356-.246.518-.542,1.005-.831,1.5-.255.436-.564.835-.846,1.252a.764.764,0,0,1-.154.2,2.118,2.118,0,0,1-.85-.682c.029-.03.062-.067.1-.1.274-.265.552-.527.821-.8.112-.112.207-.241.307-.364.149-.182.3-.365.443-.551.067-.085.125-.177.185-.268q.259-.391.516-.784a1.009,1.009,0,0,0,.055-.094c.169-.331.344-.659.5-.994.1-.2.172-.419.256-.629.074-.185.153-.368.217-.556.073-.214.133-.432.2-.649.07-.243.14-.486.2-.731.04-.157.066-.318.1-.478.042-.221.082-.443.124-.665a3.092,3.092,0,0,0,.072-.468c0-.117.029-.233.043-.349s.024-.216.035-.323c.018-.166.036-.332.052-.5,0-.031,0-.062,0-.1a.974.974,0,0,0-.123-.035q-.388-.056-.777-.107c-.3-.039-.591-.075-.886-.115-.317-.043-.635-.087-.951-.138-.209-.033-.416-.08-.625-.119l-.971-.178c-.213-.04-.425-.082-.638-.122-.777-.146-1.539-.352-2.31-.524-.617-.138-1.228-.3-1.835-.477-.417-.12-.835-.235-1.252-.355-.186-.053-.37-.114-.568-.175a.2.2,0,0,1,.11-.058c.418-.118.839-.225,1.251-.359s.825-.276,1.223-.451a7.116,7.116,0,0,0,1.24-.648C261.117,127.313,261.225,127.254,261.343,127.182Z" transform="translate(-257.193 -105.321)"/></svg>