<svg xmlns="http://www.w3.org/2000/svg" width="10.296" height="32" viewBox="0 0 10.296 32"><g transform="translate(0 0)"><path d="M376.45,132c.269,0,.426-.026.552-.222a2.638,2.638,0,0,0,.282-.913c.073-.338.148-.675.228-1.011.143-.6.3-1.189.5-1.771a5.449,5.449,0,0,1,.332-.8c.142-.273.3-.537.459-.8.315-.526.639-1.047.956-1.573a6.409,6.409,0,0,0,.739-1.573,2.432,2.432,0,0,0,.037-1.262.972.972,0,0,0-.761-.757.835.835,0,0,0-.311.057c-.131.044-.386.211-.523.144-.085-.042-.094-.159-.095-.241a2.094,2.094,0,0,1,.114-.622,5.917,5.917,0,0,1,.571-1.239,22.641,22.641,0,0,0,1.649-2.866,5.085,5.085,0,0,0,.42-1.651,1.54,1.54,0,0,0-.412-1.159,1.415,1.415,0,0,0-.692-.349,2.227,2.227,0,0,0-.487-.043c-.118,0-.276.048-.386-.008-.144-.073-.167-.278-.171-.421,0-.124,0-.48.035-1.122a8.209,8.209,0,0,1,.5-1.861c.1-.3.526-1.165.77-2.016a3.878,3.878,0,0,0,.066-1.83,2.066,2.066,0,0,0-.378-.865.8.8,0,0,0-.713-.291,1.633,1.633,0,0,0-.745.325c-.228.152-.445.32-.682.458s-.153-.366-.141-.476c.05-.455.154-.9.2-1.359a5.858,5.858,0,0,0-.006-1.207v-.012a3.887,3.887,0,0,0-.779-2,1.273,1.273,0,0,0-2.237,0,3.887,3.887,0,0,0-.779,2v.012a5.862,5.862,0,0,0-.006,1.207c.042.457.145.9.2,1.359.012.109.108.621-.141.476s-.454-.306-.682-.458a1.633,1.633,0,0,0-.745-.325.8.8,0,0,0-.713.291,2.066,2.066,0,0,0-.378.865,3.878,3.878,0,0,0,.066,1.83c.244.851.669,1.718.77,2.016a8.209,8.209,0,0,1,.5,1.861c.039.642.039,1,.035,1.122,0,.143-.027.348-.171.421-.11.056-.269.009-.386.008a2.227,2.227,0,0,0-.487.043,1.415,1.415,0,0,0-.693.349,1.54,1.54,0,0,0-.412,1.159,5.087,5.087,0,0,0,.42,1.651,22.642,22.642,0,0,0,1.649,2.866,5.917,5.917,0,0,1,.571,1.239,2.094,2.094,0,0,1,.114.622c0,.083-.01.2-.095.241-.137.067-.392-.1-.523-.144a.835.835,0,0,0-.311-.057.972.972,0,0,0-.761.757,2.432,2.432,0,0,0,.037,1.262,6.411,6.411,0,0,0,.739,1.573c.317.525.641,1.046.956,1.573.158.264.317.528.459.8a5.455,5.455,0,0,1,.332.8c.2.582.355,1.175.5,1.771.08.336.155.674.228,1.011a2.638,2.638,0,0,0,.282.913C376.024,131.974,376.181,132,376.45,132Z" transform="translate(-371.302 -100)"/></g></svg>