<svg xmlns="http://www.w3.org/2000/svg" width="62.849" height="102" viewBox="0 0 62.849 102"><path d="M269.129,167.259c-.323-.527-.625-1.021-.928-1.514-.412-.67-.808-1.351-1.243-2.007-.406-.613-.849-1.2-1.284-1.8q-.7-.953-1.413-1.894c-.187-.246-.393-.479-.6-.714-.458-.527-.913-1.057-1.381-1.575a27.8,27.8,0,0,0-2.121-2.213c-.745-.661-1.421-1.4-2.163-2.137,1.086-.2,2.141-.395,3.2-.584s2.089-.36,3.154-.569c0-.492-.009-.94,0-1.388a6.606,6.606,0,0,0-.131-1.181c-.031-.2-.079-.4-.092-.606a8.181,8.181,0,0,0-.411-1.794,15.811,15.811,0,0,0-1.227-2.99,23.327,23.327,0,0,0-1.56-2.4c-.1-.137-.216-.258-.326-.385a16.564,16.564,0,0,0-2.132-2.093,1,1,0,0,1-.225-.251,39.376,39.376,0,0,1,16.573,7.448,1.139,1.139,0,0,0,.027-.229c-.066-.533-.138-1.066-.207-1.6a6.973,6.973,0,0,1-.087-.762,9.764,9.764,0,0,0-.255-1.511c-.1-.592-.214-1.184-.36-1.766-.2-.82-.45-1.63-.669-2.447A29.988,29.988,0,0,0,272,134.8a31.145,31.145,0,0,0-2.1-4.257c-.278-.465-.528-.947-.824-1.4-.521-.8-1.065-1.584-1.6-2.373-.649-.951-1.428-1.8-2.164-2.685-.13-.156-.252-.318-.4-.512a28.392,28.392,0,0,1,15.644,5.052c.044-.231.088-.412.11-.6.035-.293.058-.586.08-.88.031-.422.049-.845.087-1.267.035-.4.088-.789.133-1.183.006-.051.013-.1.016-.154.054-.728.1-1.457.165-2.184.062-.689.151-1.376.216-2.064.041-.434.055-.871.094-1.305s.1-.891.144-1.336q.042-.4.073-.8c.033-.422.056-.845.094-1.267s.089-.866.133-1.3c.008-.077.015-.154.022-.23.049-.536.1-1.071.147-1.607.034-.409.054-.819.091-1.228.04-.446.092-.892.137-1.337.032-.319.065-.637.09-.957.033-.422.05-.845.088-1.267s.1-.865.142-1.3c.033-.343.051-.688.116-1.037.288.725.483,1.472.707,2.209s.438,1.5.658,2.252.441,1.5.662,2.252.445,1.5.667,2.25.449,1.526.674,2.288.442,1.5.662,2.25.437,1.5.657,2.253.443,1.5.663,2.251.433,1.5.655,2.253.449,1.489.678,2.248a.641.641,0,0,0,.139-.062c.316-.289.627-.582.944-.87a25.293,25.293,0,0,1,2.608-2.091,26.234,26.234,0,0,1,5.543-3,33.529,33.529,0,0,1,4.554-1.358,2.4,2.4,0,0,1,.346-.026c-.206.39-.378.745-.576,1.087a36.381,36.381,0,0,0-2.728,6.085c-.507,1.429-.85,2.9-1.224,4.361-.126.494-.182,1.006-.268,1.509-.095.555-.186,1.109-.28,1.664a1.529,1.529,0,0,0-.031.151c-.029.435-.048.871-.083,1.306-.036.46-.087.918-.129,1.377-.013.141-.024.282-.025.424,0,.991-.019,1.983,0,2.974.01.5.089.994.136,1.492.007.077.011.154.017.23.032.434.065.867.1,1.355a2.9,2.9,0,0,0,.242-.2c.578-.612,1.13-1.25,1.736-1.834.737-.709,1.5-1.391,2.285-2.052.712-.6,1.439-1.191,2.2-1.733.8-.573,1.635-1.106,2.48-1.617a31.375,31.375,0,0,1,3.164-1.687c.721-.331,1.451-.641,2.178-.959.02-.009.048,0,.118.007a22.505,22.505,0,0,0-1.652,2.388,16.312,16.312,0,0,0-1.207,2.665,16.019,16.019,0,0,0-.676,2.8,17.755,17.755,0,0,0-.151,2.91,16.5,16.5,0,0,0,.379,2.88c2.069.016,4.115,0,6.217-.012-1.064,1.663-2.223,3.194-3.163,4.87s-1.8,3.359-2.606,5.089-1.378,3.571-2.067,5.366a6.041,6.041,0,0,0,1.091.46,23.99,23.99,0,0,0,3.135.923,20.984,20.984,0,0,0,2.142.386c.628.1,1.257.191,1.886.286.051.008.1.015.156.018.494.029.989.049,1.482.086s.983.093,1.475.136c.143.013.287.006.43.014a.661.661,0,0,1,.322.091l-.382.213c-.125.07-.248.143-.374.209q-1.949,1.026-3.9,2.049c-1.06.553-2.114,1.12-3.192,1.638-1.546.743-3.122,1.428-4.668,2.172-2.193,1.055-4.482,1.885-6.726,2.818-1.922.8-3.877,1.507-5.855,2.157-1.273.419-2.531.883-3.8,1.312-.442.149-.9.253-1.35.38-.087.024-.171.057-.3.1-.027.259-.054.524-.081.789-.047.459-.1.918-.142,1.377-.034.345-.081.689-.09,1.034a12.272,12.272,0,0,1-.216,1.638c-.119.746-.219,1.5-.346,2.24-.09.529-.2,1.055-.323,1.579-.176.775-.349,1.551-.556,2.318-.184.682-.411,1.352-.622,2.027-.2.65-.4,1.3-.623,1.945-.166.473-.38.929-.565,1.4-.518,1.305-1.114,2.575-1.725,3.841-.707,1.468-1.56,2.848-2.39,4.246-.734,1.235-1.621,2.365-2.433,3.547a2.171,2.171,0,0,1-.444.58,6.077,6.077,0,0,1-2.443-1.932c.084-.086.178-.189.278-.285.788-.752,1.587-1.493,2.362-2.258.321-.317.6-.682.884-1.03.428-.517.856-1.035,1.273-1.561.192-.242.361-.5.533-.759q.745-1.109,1.484-2.222a2.853,2.853,0,0,0,.158-.266c.487-.938.99-1.867,1.451-2.817.28-.578.5-1.186.737-1.782.212-.524.441-1.042.625-1.576.209-.605.382-1.223.561-1.838.2-.689.4-1.377.581-2.072.114-.446.189-.9.276-1.354.121-.627.237-1.256.356-1.883a8.645,8.645,0,0,0,.207-1.325c.011-.33.083-.659.123-.989.037-.305.069-.611.1-.916.051-.471.1-.941.15-1.412.009-.087,0-.175,0-.28a2.839,2.839,0,0,0-.354-.1q-1.116-.158-2.234-.3c-.849-.111-1.7-.211-2.548-.326-.912-.123-1.825-.247-2.734-.39-.6-.095-1.2-.228-1.8-.338-.931-.171-1.863-.335-2.794-.505-.612-.112-1.222-.232-1.834-.345-2.233-.413-4.427-1-6.643-1.485-1.776-.391-3.53-.856-5.278-1.351-1.2-.34-2.4-.665-3.6-1.005-.535-.151-1.064-.322-1.632-.5a.59.59,0,0,1,.317-.164c1.2-.334,2.413-.638,3.6-1.018s2.374-.783,3.516-1.277a20.577,20.577,0,0,0,3.567-1.835C268.479,167.631,268.789,167.465,269.129,167.259Z" transform="translate(-257.193 -105.321)"/></svg>