<svg xmlns="http://www.w3.org/2000/svg" width="35.612" height="110.25" viewBox="0 0 35.612 110.25"><path d="M389.107,210.25c.93,0,1.473-.089,1.91-.765a9.065,9.065,0,0,0,.974-3.144c.252-1.164.512-2.326.79-3.484.494-2.055,1.047-4.1,1.723-6.1a18.748,18.748,0,0,1,1.15-2.754c.492-.94,1.04-1.85,1.587-2.759,1.091-1.813,2.21-3.609,3.307-5.418A22.044,22.044,0,0,0,403.1,180.4a8.347,8.347,0,0,0,.128-4.348,3.357,3.357,0,0,0-2.632-2.61,2.9,2.9,0,0,0-1.076.2c-.454.15-1.334.727-1.808.5-.294-.144-.323-.547-.328-.832a7.186,7.186,0,0,1,.4-2.144,20.349,20.349,0,0,1,1.974-4.269c1.9-3.289,4.29-6.322,5.7-9.875a17.471,17.471,0,0,0,1.452-5.69,5.293,5.293,0,0,0-1.424-3.991,4.9,4.9,0,0,0-2.4-1.2,7.732,7.732,0,0,0-1.684-.15,3.062,3.062,0,0,1-1.336-.027c-.5-.25-.576-.957-.592-1.45-.013-.427-.013-1.653.12-3.865a28.2,28.2,0,0,1,1.726-6.412c.348-1.026,1.82-4.012,2.663-6.945a13.311,13.311,0,0,0,.229-6.3A7.1,7.1,0,0,0,402.91,118a2.783,2.783,0,0,0-2.465-1,5.661,5.661,0,0,0-2.577,1.121c-.789.522-1.54,1.1-2.359,1.578-.861.5-.529-1.262-.487-1.639.173-1.567.533-3.106.676-4.681a20.108,20.108,0,0,0-.022-4.159l-.005-.043a13.364,13.364,0,0,0-2.695-6.885,4.41,4.41,0,0,0-7.738,0,13.364,13.364,0,0,0-2.695,6.885l0,.043a20.1,20.1,0,0,0-.022,4.159c.144,1.575.5,3.114.676,4.681.042.377.374,2.139-.487,1.639-.819-.476-1.571-1.056-2.36-1.578A5.66,5.66,0,0,0,377.769,117a2.783,2.783,0,0,0-2.465,1A7.105,7.105,0,0,0,374,120.983a13.312,13.312,0,0,0,.229,6.3c.843,2.933,2.315,5.919,2.663,6.945a28.193,28.193,0,0,1,1.726,6.412c.134,2.212.134,3.439.12,3.865-.016.493-.093,1.2-.592,1.45a3.062,3.062,0,0,1-1.336.027,7.732,7.732,0,0,0-1.684.15,4.9,4.9,0,0,0-2.4,1.2,5.292,5.292,0,0,0-1.424,3.991,17.469,17.469,0,0,0,1.452,5.69c1.412,3.553,3.8,6.586,5.7,9.875a20.352,20.352,0,0,1,1.974,4.269,7.188,7.188,0,0,1,.4,2.144c0,.285-.034.688-.328.832-.475.232-1.355-.345-1.809-.5a2.9,2.9,0,0,0-1.076-.2,3.357,3.357,0,0,0-2.632,2.61,8.347,8.347,0,0,0,.128,4.348,22.047,22.047,0,0,0,2.556,5.419c1.1,1.809,2.216,3.6,3.307,5.418.547.909,1.095,1.819,1.587,2.759a18.744,18.744,0,0,1,1.15,2.754c.676,2,1.229,4.047,1.723,6.1.278,1.158.538,2.32.79,3.484a9.066,9.066,0,0,0,.974,3.144C387.635,210.161,388.177,210.251,389.107,210.25Z" transform="translate(-371.302 -100)"/></svg>