<svg xmlns="http://www.w3.org/2000/svg" width="37.755" height="56.471" viewBox="0 0 37.755 56.471"><path d="M267.657,130.507a8.519,8.519,0,0,0-3.234-3.7,19.764,19.764,0,0,0-4.672-2.157,26.675,26.675,0,0,0-5.015-1.037h0c-.125-.014-.25-.029-.376-.042h0c.126.013.251.028.376.042a19.988,19.988,0,0,0,3.756-1.443,17.356,17.356,0,0,0,3.487-2.337,9.214,9.214,0,0,0,2.372-3.378,11.95,11.95,0,0,0,.791-4.53,10.534,10.534,0,0,0-.791-4.206,7.912,7.912,0,0,0-2.444-3.128,13.059,13.059,0,0,0-9.024-2.772c-3.161.2-6.333.293-9.5.323a6.742,6.742,0,0,0-1.342-3.282,2.246,2.246,0,0,0-3.947,0,6.7,6.7,0,0,0-1.328,3.2l-.24-.011c-.591-.032-1.181-.061-1.773-.081s-1.217-.139-1.812-.139a1.094,1.094,0,0,1-.431-.18v2.973c1.4.007,2.806.03,4.209.047.08.763.248,1.511.332,2.272.021.193.191,1.1-.249.839-.418-.244-.8-.541-1.2-.808a2.881,2.881,0,0,0-1.315-.574,1.417,1.417,0,0,0-1.257.513,3.646,3.646,0,0,0-.667,1.527,6.844,6.844,0,0,0,.117,3.229c.43,1.5,1.181,3.032,1.359,3.557a14.492,14.492,0,0,1,.881,3.284c.068,1.133.068,1.761.061,1.98-.008.253-.047.615-.3.743-.195.1-.474.016-.682.014a3.93,3.93,0,0,0-.859.077,2.5,2.5,0,0,0-1.222.615,2.717,2.717,0,0,0-.727,2.044,8.98,8.98,0,0,0,.741,2.914,39.958,39.958,0,0,0,2.909,5.058,10.441,10.441,0,0,1,1.007,2.186,3.693,3.693,0,0,1,.2,1.1c0,.146-.017.352-.168.426-.242.119-.691-.177-.923-.254a1.473,1.473,0,0,0-.549-.1,1.716,1.716,0,0,0-1.343,1.337,4.292,4.292,0,0,0,.065,2.227,11.314,11.314,0,0,0,1.3,2.776c.559.927,1.13,1.847,1.687,2.775.279.466.559.932.809,1.413a9.6,9.6,0,0,1,.581,1.4c-1.02-.021-2.04-.043-3.06-.043l-1.465-.017s.013,2.4.013,2.643c.041-.543,4.322-.3,4.734-.289l.454.011q.107.416.208.835c.142.593.274,1.189.4,1.785a4.655,4.655,0,0,0,.5,1.61c.223.346.5.393.974.392s.751-.046.974-.392a4.657,4.657,0,0,0,.5-1.61c.129-.6.261-1.192.4-1.785q.082-.343.17-.685l2.274.105a52.239,52.239,0,0,0,12.337-.4q.211-.041.422-.085.3-.063.6-.133a20.187,20.187,0,0,0,5.679-2.3,10.088,10.088,0,0,0,3.989-4.277,14.583,14.583,0,0,0,1.33-6.506A13.216,13.216,0,0,0,267.657,130.507Zm-18.647-25.853a21.806,21.806,0,0,1,3.833.614,8.952,8.952,0,0,1,5.226,3.11,7.594,7.594,0,0,1,1.251,4.48,11.319,11.319,0,0,1-1.079,5.284,6.135,6.135,0,0,1-3.163,2.912,23.593,23.593,0,0,1-6.135,1.679,2.239,2.239,0,0,0-.524-.8,2.5,2.5,0,0,0-1.222-.615,3.93,3.93,0,0,0-.859-.077c-.208,0-.487.084-.682-.014-.255-.128-.294-.49-.3-.743-.007-.219-.007-.847.061-1.98a14.491,14.491,0,0,1,.881-3.284c.177-.526.928-2.055,1.359-3.557a6.844,6.844,0,0,0,.117-3.229,3.647,3.647,0,0,0-.667-1.527,1.417,1.417,0,0,0-1.258-.513,2.881,2.881,0,0,0-1.315.574c-.4.268-.786.565-1.2.808-.439.256-.27-.646-.248-.839.085-.776.259-1.539.337-2.318A53.1,53.1,0,0,1,249.009,104.654Zm12.753,36.314a8.666,8.666,0,0,1-2.443,3.522,11.476,11.476,0,0,1-3.738,2.157,16.282,16.282,0,0,1-4.936.711c-1.341.045-2.683.057-4.025.051-1.279-.006-2.559-.03-3.839-.059.012-.036.023-.073.035-.109a9.634,9.634,0,0,1,.586-1.411c.251-.482.53-.948.809-1.413.556-.929,1.127-1.848,1.687-2.775a11.315,11.315,0,0,0,1.3-2.776,4.291,4.291,0,0,0,.065-2.227,1.716,1.716,0,0,0-1.343-1.337,1.473,1.473,0,0,0-.549.1c-.231.077-.681.372-.923.254-.15-.074-.165-.28-.168-.426a3.693,3.693,0,0,1,.2-1.1,10.444,10.444,0,0,1,1.007-2.186,39.945,39.945,0,0,0,2.909-5.058c.132-.333.263-.683.377-1.04a25.158,25.158,0,0,1,9.531,2.034,6.487,6.487,0,0,1,3.162,2.983,11.326,11.326,0,0,1,1.079,5.285A13.537,13.537,0,0,1,261.762,140.969Z" transform="translate(-230.981 -97.684)"/></svg>