<svg xmlns="http://www.w3.org/2000/svg" width="72.25" height="72.25" viewBox="0 0 72.25 72.25"><path d="M1030.116,1006.4c-3.577-3.406-2.75-6.359-2.007-7.746.047-.075.092-.152.142-.225.085-.119.168-.239.261-.347s.173-.188.289-.33l.653-.762c.453-.5.823-1.047,1.236-1.574.385-.543.76-1.1,1.118-1.666a27.275,27.275,0,0,0,3.182-7.438,28.85,28.85,0,0,0,.9-8.155,36.332,36.332,0,0,0-4.4-15.86,47.5,47.5,0,0,0-9.332-12.1l3.929-3.928,3.139,3.14,4.2-11.786-11.785,4.2,3.139,3.139-3.929,3.929a47.5,47.5,0,0,0-12.1-9.332,36.331,36.331,0,0,0-15.859-4.4,28.828,28.828,0,0,0-8.156.9,27.271,27.271,0,0,0-7.438,3.182q-.849.537-1.665,1.118c-.527.414-1.072.783-1.575,1.236l-.761.653c-.142.116-.211.2-.33.29s-.228.176-.347.26c-.083.058-.171.11-.258.164-1.357.717-4.194,1.5-7.481-1.789q-.116-.116-.232-.238a.562.562,0,0,0-.815-.021.577.577,0,0,0-.021.815c.085.089.169.176.254.26a11.069,11.069,0,0,0,2.056,1.642l29.992,29.992-8.468,8.468-5.491.279-7.855,7.471,6.2.7.7,6.2,7.471-7.855.279-5.492,8.467-8.467,29.991,29.991a11.082,11.082,0,0,0,1.643,2.056c.084.084.172.169.26.254a.576.576,0,0,0,.795-.835Zm-62.44-62.032a6.564,6.564,0,0,0,5.358-.475c.062-.03.124-.056.185-.088.157-.084.313-.168.466-.268s.319-.227.44-.3l.782-.52c.506-.359,1.077-.651,1.61-.976q.829-.448,1.675-.852a24.921,24.921,0,0,1,7.1-2.074,25.55,25.55,0,0,1,7.284.079,31.672,31.672,0,0,1,13.272,5.471,41.061,41.061,0,0,1,9.407,9.273,3.721,3.721,0,0,0,.309.543l-19.037,19.038Zm30.158,30.158,19.037-19.037a3.737,3.737,0,0,0,.553.317,41.05,41.05,0,0,1,9.262,9.4,31.676,31.676,0,0,1,5.471,13.272,25.554,25.554,0,0,1,.079,7.284,24.914,24.914,0,0,1-2.074,7.1c-.268.563-.554,1.122-.851,1.675-.326.534-.618,1.1-.977,1.61l-.52.782c-.074.12-.213.289-.3.44s-.184.309-.268.466c-.037.07-.068.143-.1.215a6.558,6.558,0,0,0-.462,5.328Z" transform="translate(-963.657 -935.146)"/></svg>