<svg xmlns="http://www.w3.org/2000/svg" width="90.337" height="89.843" viewBox="0 0 90.337 89.843"><path d="M246.9,206l3.148,30.609,15.325-26.683L255.8,239.168l24.853-18.142-20.641,22.821,30.084-6.465-28.138,12.452,30.112,6.33-30.771-.069,24.935,18.03-28.082-12.579L273.6,288.159l-20.538-22.913,3.285,30.595L246.9,266.555l-9.443,29.286,3.285-30.595-20.538,22.913,15.445-26.613-28.082,12.579,24.934-18.03-30.771.069,30.112-6.33L203.71,237.381l30.084,6.465-20.641-22.821,24.853,18.142-9.574-29.243,15.325,26.683Z" transform="translate(-201.736 -205.998)"/></svg>